<mxfile host="app.diagrams.net" modified="2023-08-01T17:07:11.309Z" agent="Mozilla/5.0 (X11; Linux x86_64) AppleWebKit/537.36 (KHTML, like Gecko) Chrome/114.0.0.0 Safari/537.36" version="21.6.6" etag="HxV6Y3Vp3IoGkg4YR23L" type="github">
  <diagram name="Страница 1" id="ViO0Nc06eV1MpBvahNoN">
    <mxGraphModel>
      <root>
        <mxCell id="0" />
        <mxCell id="1" parent="0" />
      </root>
    </mxGraphModel>
  </diagram>
</mxfile>
